# xmcd
#
# Track frame offsets:
#	150
#	17137
#	34222
#	50115
#	70617
#	86077
#	102615
#	115650
#	133637
#	148550
#	164925
#	179945
#	199620
#
# Disc length: 2892 seconds
#
# Revision: 0
# Processed by: cddbd v1.5.1PL2 Copyright (c) Steve Scherf et al.
# Submitted via: dBpowerAMP V4.0
#
DISCID=c80b4a0d
DTITLE=Various Artist - BMG Country Sampler
DYEAR=1994
DGENRE=Country
TTITLE0=John Anderson - Keep Your Hands To Yourself
TTITLE1=Aaron Tippin - I Got It Honest
TTITLE2=Diamond Rio - Night Is Fallin' In My Heart
TTITLE3=Lari White - Now I Know
TTITLE4=Clint Black - Untanglin' My Mind
TTITLE5=Waylon Jennings - Wild Ones
TTITLE6=Pam Tillis - Mi Vida Loca (My Crazy Life)
TTITLE7=Tractors - Baby Likes To Rock It
TTITLE8=Alabama - We Can't Love Like This Anymore
TTITLE9=Blackhawk - I Sure Can Smell The Rain
TTITLE10=Martina McBride - Heart Trouble
TTITLE11=Gary Chapman - Finally
TTITLE12=Various Artist - A Voice Still Rings True
EXTD=
EXTT0=
EXTT1=
EXTT2=
EXTT3=
EXTT4=
EXTT5=
EXTT6=
EXTT7=
EXTT8=
EXTT9=
EXTT10=
EXTT11=
EXTT12=
PLAYORDER=
